<svg width="12" height="16" viewBox="0 0 12 16" fill="none" xmlns="http://www.w3.org/2000/svg">
<path d="M10.5001 7.81052V4.49646C10.5001 3.30393 10.026 2.16023 9.18206 1.31698C8.33815 0.473733 7.19356 0 6.00008 0C4.80661 0 3.66202 0.473733 2.8181 1.31698C1.97419 2.16023 1.50008 3.30393 1.50008 4.49646V7.81052C0.987161 8.6162 0.700306 9.54478 0.669517 10.4992C0.638728 11.4535 0.865136 12.3987 1.32506 13.2357C1.78499 14.0727 2.46154 14.7709 3.28396 15.2571C4.10638 15.7434 5.04445 16 6.00008 16C6.95571 16 7.89379 15.7434 8.71621 15.2571C9.53863 14.7709 10.2152 14.0727 10.6751 13.2357C11.135 12.3987 11.3614 11.4535 11.3306 10.4992C11.2999 9.54478 11.013 8.6162 10.5001 7.81052ZM6.00008 11.9906C5.73637 11.9906 5.47859 11.9124 5.25932 11.766C5.04006 11.6196 4.86916 11.4116 4.76824 11.1681C4.66733 10.9247 4.64092 10.6568 4.69237 10.3984C4.74382 10.1399 4.8708 9.90253 5.05727 9.71621C5.24374 9.52989 5.48132 9.403 5.73996 9.35159C5.9986 9.30019 6.26669 9.32657 6.51033 9.42741C6.75396 9.52824 6.9622 9.69901 7.10871 9.9181C7.25522 10.1372 7.33342 10.3948 7.33342 10.6583C7.33342 11.0116 7.19294 11.3505 6.94289 11.6003C6.69284 11.8502 6.3537 11.9906 6.00008 11.9906ZM8.83342 5.58294C8.83341 5.63961 8.81894 5.69535 8.79136 5.74487C8.76379 5.79439 8.72402 5.83606 8.67583 5.86595C8.62764 5.89583 8.57261 5.91292 8.51596 5.91562C8.45931 5.91832 8.4029 5.90653 8.35208 5.88137C7.62132 5.51818 6.81625 5.32917 6.00008 5.32917C5.18391 5.32917 4.37885 5.51818 3.64808 5.88137C3.59726 5.90653 3.54086 5.91832 3.48421 5.91562C3.42755 5.91292 3.37253 5.89583 3.32433 5.86595C3.27614 5.83606 3.23637 5.79439 3.2088 5.74487C3.18122 5.69535 3.16675 5.63961 3.16675 5.58294V4.49646C3.16675 3.7456 3.46526 3.0255 3.99661 2.49457C4.52797 1.96363 5.24864 1.66536 6.00008 1.66536C6.75153 1.66536 7.4722 1.96363 8.00355 2.49457C8.5349 3.0255 8.83342 3.7456 8.83342 4.49646V5.58294Z" fill="#9E9E9E"/>
</svg>
