<svg width="12" height="16" viewBox="0 0 12 16" fill="none" xmlns="http://www.w3.org/2000/svg">
<path d="M9.33342 0H2.66675C2.13632 0 1.62761 0.210714 1.25253 0.585786C0.877462 0.960859 0.666748 1.46957 0.666748 2V14C0.666748 14.5304 0.877462 15.0391 1.25253 15.4142C1.62761 15.7893 2.13632 16 2.66675 16H9.33342C9.86385 16 10.3726 15.7893 10.7476 15.4142C11.1227 15.0391 11.3334 14.5304 11.3334 14V2C11.3334 1.46957 11.1227 0.960859 10.7476 0.585786C10.3726 0.210714 9.86385 0 9.33342 0V0ZM2.00008 12.6667V2.33333C2.00008 2.24493 2.0352 2.16014 2.09771 2.09763C2.16022 2.03512 2.24501 2 2.33341 2H9.66675C9.75515 2 9.83994 2.03512 9.90245 2.09763C9.96496 2.16014 10.0001 2.24493 10.0001 2.33333V12.6667C10.0001 12.7551 9.96496 12.8399 9.90245 12.9024C9.83994 12.9649 9.75515 13 9.66675 13H2.33341C2.24501 13 2.16022 12.9649 2.09771 12.9024C2.0352 12.8399 2.00008 12.7551 2.00008 12.6667Z" fill="#9E9E9E"/>
</svg>
